<svg width="24" height="24" viewBox="0 0 24 24" fill="none" xmlns="http://www.w3.org/2000/svg">
<path d="M24 12C24 13.5759 23.6896 15.1363 23.0866 16.5922C22.4835 18.0481 21.5996 19.371 20.4853 20.4853C19.371 21.5996 18.0481 22.4835 16.5922 23.0866C15.1363 23.6896 13.5759 24 12 24C10.4241 24 8.86371 23.6896 7.4078 23.0866C5.95189 22.4835 4.62902 21.5996 3.51472 20.4853C2.40042 19.371 1.5165 18.0481 0.913445 16.5922C0.310389 15.1363 -1.37766e-07 13.5759 0 12L24 12Z" fill="url(#paint0_linear_2_218)"/>
<path d="M24 12C24 13.5759 23.6896 15.1363 23.0866 16.5922L22.8477 17.1318C22.2592 18.3757 21.4603 19.5102 20.4853 20.4853L20.0576 20.8926C19.0381 21.8164 17.866 22.5589 16.5922 23.0866L16.042 23.2988C14.7463 23.7624 13.379 24 12 24L12 23C13.4445 23 14.8754 22.7159 16.21 22.1631C17.5445 21.6103 18.7569 20.7997 19.7783 19.7783C20.7997 18.7569 21.6103 17.5445 22.1631 16.21L22.3574 15.7051C22.6699 14.8316 22.8689 13.9226 22.9531 13H1.04688C1.14746 14.1017 1.41211 15.1844 1.83691 16.21L2.05664 16.7041C2.59603 17.8442 3.32791 18.8846 4.22168 19.7783L4.61328 20.1514C5.5479 20.9983 6.62231 21.6794 7.79004 22.1631L8.29492 22.3574C9.48261 22.7823 10.7359 23 12 23L12 24L11.4102 23.9854C10.232 23.9274 9.0687 23.6962 7.95801 23.2988L7.4078 23.0866C6.13399 22.5589 4.96193 21.8164 3.94238 20.8926L3.51472 20.4853C2.53968 19.5102 1.74077 18.3757 1.15234 17.1318L0.913445 16.5922C0.310389 15.1363 -1.37766e-07 13.5759 0 12L24 12Z" fill="black"/>
<path d="M0 12C1.37766e-07 10.4241 0.310388 8.8637 0.913445 7.4078C1.5165 5.95189 2.40041 4.62902 3.51472 3.51472C4.62902 2.40042 5.95189 1.5165 7.4078 0.913444C8.86371 0.310388 10.4241 -2.06649e-07 12 0C13.5759 2.0665e-07 15.1363 0.31039 16.5922 0.913447C18.0481 1.5165 19.371 2.40042 20.4853 3.51472C21.5996 4.62902 22.4835 5.95189 23.0866 7.4078C23.6896 8.86371 24 10.4241 24 12L0 12Z" fill="url(#paint1_linear_2_218)"/>
<path d="M0 12C1.37766e-07 10.4241 0.310388 8.8637 0.913445 7.4078L1.15234 6.86816C1.74077 5.62435 2.53968 4.48975 3.51472 3.51472L3.94238 3.10742C4.96193 2.1836 6.13399 1.44107 7.4078 0.913444L7.95801 0.70117C9.25371 0.23765 10.621 -1.8084e-07 12 0V0.999998C10.5555 0.999998 9.12462 1.28411 7.79004 1.83691L7.2959 2.05664C6.15576 2.59603 5.11545 3.32791 4.22168 4.22168L3.84863 4.61328C3.00169 5.54789 2.32064 6.6223 1.83691 7.79004L1.64258 8.29492C1.33013 9.16835 1.13111 10.0774 1.04688 11L22.9531 11C22.8525 9.89833 22.5879 8.81561 22.1631 7.79004L21.9434 7.2959C21.404 6.15576 20.6721 5.11544 19.7783 4.22168L19.3867 3.84863C18.4521 3.00169 17.3777 2.32064 16.21 1.83691L15.7051 1.64258C14.5174 1.21771 13.2641 0.999998 12 0.999998V0L12.5898 0.0146466C13.768 0.0726288 14.9313 0.303837 16.042 0.70117L16.5922 0.913447C17.866 1.44108 19.0381 2.1836 20.0576 3.10742L20.4853 3.51472C21.4603 4.48975 22.2592 5.62435 22.8477 6.86816L23.0866 7.4078C23.6896 8.86371 24 10.4241 24 12L0 12Z" fill="black"/>
<path d="M17.5384 12C17.5384 15.0588 15.0588 17.5385 11.9999 17.5385C8.94114 17.5385 6.46148 15.0588 6.46148 12C6.46148 8.9412 8.94114 6.46154 11.9999 6.46154C15.0588 6.46154 17.5384 8.9412 17.5384 12Z" fill="white"/>
<path d="M16.5384 11.9995C16.5382 9.49322 14.5058 7.46152 11.9995 7.46152C9.49328 7.46173 7.46167 9.49334 7.46146 11.9995C7.46146 14.5059 9.49316 16.5383 11.9995 16.5385L11.9999 17.5385L11.7153 17.5307C8.8831 17.3873 6.61176 15.1168 6.46832 12.2847L6.46148 12C6.46148 8.9412 8.94114 6.46154 11.9999 6.46154L12.2846 6.46838C15.2109 6.61658 17.5382 9.03693 17.5384 12L17.5306 12.2847C17.3824 15.2111 14.9632 17.5385 11.9999 17.5385L11.9995 16.5385C14.5059 16.5385 16.5384 14.506 16.5384 11.9995Z" fill="black"/>
<path d="M12.449 9.07254C12.5363 8.8108 12.819 8.66911 13.0808 8.75613C13.3428 8.84346 13.4845 9.12697 13.3972 9.38894L11.5515 14.927C11.4642 15.189 11.1807 15.3308 10.9187 15.2434C10.6568 15.1561 10.515 14.8726 10.6023 14.6106L12.449 9.07254Z" fill="black"/>
<path d="M9.79984 9.80031C9.9951 9.60505 10.3126 9.60505 10.5078 9.80031C10.7028 9.99551 10.7028 10.3121 10.5078 10.5073L9.01469 11.9995L10.5078 13.4927C10.7027 13.6879 10.7028 14.0045 10.5078 14.1997C10.3126 14.395 9.9951 14.395 9.79984 14.1997L7.95414 12.354C7.75888 12.1588 7.75888 11.8413 7.95414 11.646L9.79984 9.80031Z" fill="black"/>
<path d="M14.2002 14.1997C14.0049 14.3949 13.6874 14.3949 13.4921 14.1997C13.2972 14.0045 13.2972 13.6879 13.4921 13.4927L14.9853 12.0005L13.4921 10.5073C13.2973 10.3121 13.2972 9.99545 13.4921 9.80027C13.6874 9.60501 14.0049 9.60501 14.2002 9.80027L16.0459 11.646C16.2411 11.8412 16.2411 12.1587 16.0459 12.354L14.2002 14.1997Z" fill="black"/>
<defs>
<linearGradient id="paint0_linear_2_218" x1="12" y1="-24" x2="12" y2="24" gradientUnits="userSpaceOnUse">
<stop stop-color="white"/>
<stop offset="1" stop-color="#EFEEEE"/>
</linearGradient>
<linearGradient id="paint1_linear_2_218" x1="12" y1="24" x2="12" y2="-24" gradientUnits="userSpaceOnUse">
<stop stop-color="#F14540"/>
<stop offset="1" stop-color="#CC2A25"/>
</linearGradient>
</defs>
</svg>
